<?xml version="1.0" encoding="UTF-8" standalone="no"?>
<!-- Created with Inkscape (http://www.inkscape.org/) -->

<svg
   width="150cm"
   height="100cm"
   viewBox="0 0 150 100"
   version="1.1"
   id="SVGRoot"
   sodipodi:docname="flag of kazjistan.svg"
   inkscape:version="1.1.2 (b8e25be833, 2022-02-05)"
   inkscape:export-filename="C:\Users\kaste\kazjistan flag 2.png"
   inkscape:export-xdpi="63.5"
   inkscape:export-ydpi="63.5"
   xmlns:inkscape="http://www.inkscape.org/namespaces/inkscape"
   xmlns:sodipodi="http://sodipodi.sourceforge.net/DTD/sodipodi-0.dtd"
   xmlns="http://www.w3.org/2000/svg"
   xmlns:svg="http://www.w3.org/2000/svg">
  <sodipodi:namedview
     id="namedview829"
     pagecolor="#ffffff"
     bordercolor="#666666"
     borderopacity="1.0"
     inkscape:pageshadow="2"
     inkscape:pageopacity="0.0"
     inkscape:pagecheckerboard="0"
     inkscape:document-units="cm"
     showgrid="false"
     inkscape:zoom="0.11322959"
     inkscape:cx="-3135.2229"
     inkscape:cy="2366.8725"
     inkscape:window-width="2560"
     inkscape:window-height="1057"
     inkscape:window-x="-8"
     inkscape:window-y="-8"
     inkscape:window-maximized="1"
     inkscape:current-layer="layer1" />
  <defs
     id="defs824" />
  <g
     inkscape:label="Layer 1"
     inkscape:groupmode="layer"
     id="layer1">
    <rect
       style="fill:#ffffff;fill-opacity:1;stroke-width:0.0268999;stroke-linecap:round;paint-order:markers fill stroke"
       id="rect1088-9"
       width="50"
       height="100"
       x="50"
       y="-2.766028e-07" />
    <path
       style="fill:#fba910;fill-opacity:1;stroke-width:0.121637"
       d="m 74.883287,81.150305 c -0.0055,-0.700948 -0.108542,-1.333905 -0.451226,-2.773231 -0.171065,-0.718535 -0.7101,-2.291137 -0.824513,-2.405545 -0.09443,-0.09443 -0.552867,0.229222 -0.697705,0.492551 -0.08197,0.148999 -0.178973,0.702417 -0.21566,1.229835 l -0.06666,0.958939 -0.443641,-0.654846 C 69.55865,74.12292 69.300561,69.943943 71.482375,66.639095 c 0.491902,-0.745099 0.858083,-1.516137 0.780025,-1.642438 -0.06344,-0.102658 -2.811272,-1.950634 -4.013817,-2.699365 -0.93913,-0.584723 -2.589315,-1.43596 -2.783716,-1.43596 -0.256944,0 -0.250094,0.04137 0.09751,0.592041 0.766058,1.213515 2.999651,3.63226 4.258206,4.611188 0.396288,0.308249 0.663694,0.579398 0.594215,0.602559 -0.244255,0.08142 -2.046896,-0.605161 -3.497645,-1.332152 -4.202924,-2.106133 -8.363565,-5.611414 -10.579872,-8.913389 -0.359234,-0.535205 -0.635955,-0.991355 -0.614936,-1.01367 0.02115,-0.02253 0.283424,0.0679 0.58309,0.200442 1.742352,0.770725 7.625031,1.72657 7.625031,1.238947 0,-0.06689 -0.106796,-0.121644 -0.23736,-0.121644 -1.515879,0 -8.09122,-2.935616 -8.979741,-4.009078 -0.482718,-0.583191 -1.239366,-2.443152 -1.585469,-3.897336 -0.385485,-1.619792 -0.62648,-4.14319 -0.627234,-6.568385 L 52.5,40.122205 l 0.502582,0.912281 c 0.276436,0.501754 0.563961,1.021752 0.638989,1.155552 1.016088,1.812107 3.218171,4.077954 5.230964,5.382441 1.131278,0.733178 1.080901,0.518359 -0.206787,-0.88187 -1.762346,-1.916351 -2.785472,-3.398877 -3.861439,-5.595305 -1.000103,-2.041559 -1.242372,-2.819778 -1.306601,-4.197066 -0.06583,-1.411645 0.166606,-2.759452 0.816196,-4.732345 0.712878,-2.165162 2.466484,-5.688989 2.604706,-5.234099 0.02942,0.09641 0.116313,0.982615 0.193409,1.969404 0.247841,3.172915 0.716624,5.029597 1.855579,7.349564 0.471487,0.960382 0.65524,1.225509 0.769902,1.110843 0.02667,-0.02667 -0.114932,-0.702474 -0.314271,-1.502235 -0.41477,-1.66418 -0.720427,-4.012852 -0.722036,-5.547788 -9.9e-4,-0.941446 0.180813,-2.831022 0.472126,-4.906904 l 0.102336,-0.729257 1.307714,-1.24588 c 1.973822,-1.880491 4.632165,-3.543195 7.239505,-4.528067 0.56865,-0.214786 1.117817,-0.433664 1.22036,-0.486368 0.265724,-0.136585 0.969108,-0.28085 0.969108,-0.198741 0,0.0377 -0.230509,0.214464 -0.512218,0.392288 -0.512633,0.323604 -2.175184,1.687888 -2.540041,2.084336 -0.427642,0.464655 -1.661504,2.06107 -1.902003,2.460852 -1.538006,2.556599 -2.223156,5.102865 -2.221069,8.254305 0.0013,1.963418 0.17364,3.301152 0.738801,5.73396 0.384381,1.654681 0.404563,1.899489 0.193224,2.344848 -0.103576,0.218234 -0.332109,0.888342 -0.507873,1.489123 -1.563406,5.343699 -0.388427,9.645239 3.72404,13.6335 1.725158,1.673058 2.308207,1.895627 0.763746,0.291562 -1.567057,-1.627544 -2.379005,-2.962212 -3.107922,-5.108759 -0.573101,-1.687695 -0.832407,-3.239778 -0.830311,-4.969855 0.002,-1.671412 0.06239,-1.718565 0.489154,-0.382174 0.417849,1.30844 1.517244,3.395383 2.434964,4.622211 1.035098,1.383744 1.713802,2.098432 3.370047,3.548722 1.142073,1.000052 1.276396,1.083796 1.581285,0.985883 0.447043,-0.143574 0.88056,-1.000507 0.88056,-1.74065 0,-1.795576 -1.13354,-2.979038 -3.087162,-3.223127 -0.375967,-0.04699 -0.683591,-0.116772 -0.683591,-0.155113 0,-0.251749 0.633196,-0.920878 1.075792,-1.136864 0.445065,-0.217177 0.658711,-0.245772 1.354409,-0.181089 0.590997,0.05494 0.972739,0.02482 1.341834,-0.105231 1.072998,-0.378589 2.886314,-0.16578 4.742564,0.556494 0.809099,0.314824 1.666202,0.480492 2.037421,0.393806 0.382496,-0.08932 0.340891,0.12753 -0.0948,0.494164 -0.481394,0.40507 -1.051634,0.50153 -2.145173,0.362866 -0.490693,-0.0622 -0.892172,-0.09553 -0.892172,-0.07406 0,0.02161 0.144815,0.32457 0.321858,0.673584 0.426952,0.841762 0.641609,1.782588 0.646897,2.835578 0.005,0.978413 0.122563,1.157877 0.897012,1.368361 l 0.466954,0.126885 1.41842,-1.22075 c 1.221347,-1.051138 1.865764,-1.704484 2.93691,-2.977594 1.044065,-1.240928 2.052482,-3.095257 2.902087,-5.336527 l 0.368895,-0.973098 0.0081,1.605706 c 0.0092,1.906857 -0.167254,2.979277 -0.80583,4.901879 -0.684178,2.059907 -1.576614,3.509296 -3.252622,5.282509 -0.818619,0.866092 -0.951736,1.133384 -0.350275,0.703343 0.606123,-0.433388 3.010679,-2.985289 3.462562,-3.674748 0.653966,-0.997795 1.328506,-2.363255 1.68248,-3.405837 0.806126,-2.374299 0.619901,-5.731271 -0.482438,-8.697054 -0.412698,-1.110324 -0.414399,-1.165367 -0.07731,-2.512825 0.626247,-2.503017 0.811257,-3.88278 0.810681,-6.046029 -7.29e-4,-2.8597 -0.461243,-4.952671 -1.55856,-7.083918 -1.27817,-2.482519 -2.612678,-3.965197 -5.385608,-5.983594 L 79.926228,18.156 l 0.364938,0.07356 c 0.682415,0.137598 2.428577,0.839317 3.880471,1.559429 2.320263,1.150813 3.647545,2.082512 5.438373,3.81754 1.125082,1.090037 1.171999,1.15672 1.244618,1.769256 0.0414,0.350085 0.157408,1.293371 0.25754,2.096175 0.362776,2.908321 0.158695,5.88717 -0.598337,8.73339 -0.412707,1.551707 -0.173779,1.512607 0.593748,-0.09719 1.029161,-2.158487 1.531902,-4.075601 1.770344,-6.750853 0.07452,-0.836255 0.165229,-1.762994 0.201498,-2.059419 l 0.06597,-0.538961 0.370588,0.59537 c 0.514819,0.827134 1.091656,1.997139 1.767168,3.58437 0.74148,1.74225 1.246544,4.03793 1.24658,5.666145 9e-6,0.8915 -0.06966,1.321647 -0.36085,2.227653 -0.854267,2.657906 -2.792225,5.751015 -5.222323,8.335162 -1.173708,1.24811 -0.361533,0.933975 1.56918,-0.606927 1.792296,-1.430429 3.280441,-3.232174 4.379144,-5.301961 l 0.603308,-1.13655 0.0018,2.311108 c 0.0027,4.011523 -0.520482,7.041213 -1.591673,9.223082 -0.431039,0.877966 -0.730186,1.2638 -1.257884,1.62238 -0.542214,0.368429 -2.658847,1.470399 -3.35063,1.744394 -0.301037,0.119254 -0.848417,0.352613 -1.216368,0.518571 -1.192626,0.537959 -3.253243,1.183931 -3.776693,1.183931 -0.130516,0 -0.237308,0.05476 -0.237308,0.121645 0,0.283149 2.440411,0.05319 5.047932,-0.475624 0.794382,-0.161089 2.068088,-0.542712 2.658758,-0.796579 0.258089,-0.110933 0.487468,-0.183525 0.509689,-0.161274 0.03771,0.0377 -0.145411,0.334178 -0.931297,1.507315 -0.516682,0.771285 -2.304055,2.716264 -3.403415,3.703513 -2.219843,1.993471 -4.350812,3.450509 -6.983416,4.774865 -1.325248,0.666678 -3.141177,1.348082 -3.380242,1.268397 -0.06817,-0.02253 0.144448,-0.239428 0.472575,-0.481564 0.678392,-0.500614 2.804367,-2.649708 3.522952,-3.561268 0.263705,-0.334499 0.509707,-0.635554 0.546687,-0.669004 0.107441,-0.09719 0.601767,-0.933304 0.601767,-1.017862 0,-0.389485 -2.104132,0.753641 -5.291219,2.87465 -1.665278,1.108241 -1.570021,0.922197 -1.030132,2.011975 0.862501,1.740973 1.213569,3.282639 1.2103,5.314838 -0.0037,2.294397 -0.474616,4.257897 -1.52289,6.34964 -0.716587,1.429896 -1.399884,2.409017 -2.529494,3.624605 l -0.678203,0.729823 -0.0055,-0.693431 z"
       id="path926" />
    <rect
       style="fill:#004c4c;fill-opacity:1;stroke-width:0.0268999;stroke-linecap:round;paint-order:markers fill stroke"
       id="rect1088"
       width="50"
       height="100"
       x="0"
       y="0" />
    <rect
       style="fill:#004c4c;fill-opacity:1;stroke-width:0.0268999;stroke-linecap:round;paint-order:markers fill stroke"
       id="rect1088-2"
       width="50"
       height="100"
       x="100"
       y="0" />
  </g>
</svg>
