<?xml version="1.0" encoding="UTF-8" standalone="no"?>
<!-- Created with Inkscape (http://www.inkscape.org/) -->

<svg
   width="1000"
   height="400"
   viewBox="0 0 264.58334 105.83333"
   version="1.1"
   id="svg1"
   inkscape:version="1.3.2 (091e20e, 2023-11-25, custom)"
   sodipodi:docname="ECK logo.svg"
   xmlns:inkscape="http://www.inkscape.org/namespaces/inkscape"
   xmlns:sodipodi="http://sodipodi.sourceforge.net/DTD/sodipodi-0.dtd"
   xmlns="http://www.w3.org/2000/svg"
   xmlns:svg="http://www.w3.org/2000/svg">
  <sodipodi:namedview
     id="namedview1"
     pagecolor="#ffffff"
     bordercolor="#000000"
     borderopacity="0.25"
     inkscape:showpageshadow="2"
     inkscape:pageopacity="0.0"
     inkscape:pagecheckerboard="0"
     inkscape:deskcolor="#d1d1d1"
     inkscape:document-units="mm"
     inkscape:zoom="0.69219276"
     inkscape:cx="465.91068"
     inkscape:cy="191.42067"
     inkscape:window-width="1920"
     inkscape:window-height="991"
     inkscape:window-x="-9"
     inkscape:window-y="-9"
     inkscape:window-maximized="1"
     inkscape:current-layer="layer1" />
  <defs
     id="defs1" />
  <g
     inkscape:label="Layer 1"
     inkscape:groupmode="layer"
     id="layer1">
    <text
       xml:space="preserve"
       style="font-size:3.175px;font-family:'Liberation Sans Narrow';-inkscape-font-specification:'Liberation Sans Narrow';fill:#4c7823;stroke-width:1;stroke-linejoin:bevel"
       x="63.55983"
       y="52.97567"
       id="text1"><tspan
         sodipodi:role="line"
         style="font-style:normal;font-variant:normal;font-weight:bold;font-stretch:normal;font-size:12.7px;font-family:'DejaVu Sans';-inkscape-font-specification:'DejaVu Sans Bold';fill:#004c4c;fill-opacity:1;stroke-width:1"
         x="63.55983"
         y="52.97567"
         id="tspan2">ELECTORAL COMMISSION</tspan><tspan
         sodipodi:role="line"
         style="font-style:normal;font-variant:normal;font-weight:bold;font-stretch:normal;font-size:8.46667px;font-family:'DejaVu Sans';-inkscape-font-specification:'DejaVu Sans Bold';fill:#004c4c;fill-opacity:1;stroke-width:1"
         x="63.55983"
         y="65.105164"
         id="tspan3">OF KAZJISTAN</tspan></text>
    <rect
       style="fill:#fba910;fill-opacity:1;stroke-width:1;stroke-linejoin:bevel"
       id="rect3"
       width="200"
       height="2"
       x="53.355904"
       y="69.192726" />
    <rect
       style="fill:#fba910;fill-opacity:1;stroke-width:1;stroke-linejoin:bevel"
       id="rect4"
       width="200"
       height="2"
       x="53.355904"
       y="36.48835" />
    <path
       style="fill:#fba910;fill-opacity:1;stroke-width:0.0990553"
       d="m 32.965751,81.608894 c -0.0044,-0.570815 -0.08839,-1.086266 -0.367459,-2.258389 -0.139307,-0.58514 -0.578272,-1.865798 -0.671445,-1.958965 -0.0769,-0.0769 -0.45023,0.186669 -0.56818,0.401112 -0.06675,0.12134 -0.145744,0.572013 -0.175621,1.00152 l -0.05429,0.780912 -0.361282,-0.533272 c -2.137871,-3.155694 -2.348044,-6.558857 -0.571275,-9.250174 0.40058,-0.606775 0.698782,-1.234671 0.635214,-1.337525 -0.05163,-0.0836 -2.289369,-1.588509 -3.268665,-2.198242 -0.764783,-0.476173 -2.108617,-1.16938 -2.26693,-1.16938 -0.209241,0 -0.203666,0.0337 0.07941,0.482135 0.623842,0.988228 2.442778,2.957944 3.467688,3.755138 0.322719,0.251023 0.540482,0.471833 0.483901,0.490693 -0.198909,0.0663 -1.666902,-0.492815 -2.848325,-1.084841 -3.422662,-1.715139 -6.8109,-4.569679 -8.615759,-7.258652 -0.292544,-0.435849 -0.51789,-0.807318 -0.500772,-0.825488 0.01723,-0.01837 0.230807,0.05531 0.474842,0.163229 1.418888,0.627643 6.209472,1.40604 6.209472,1.008944 0,-0.05448 -0.08697,-0.09906 -0.193296,-0.09906 -1.234461,0 -6.589114,-2.390626 -7.312686,-3.264807 -0.393104,-0.474925 -1.00928,-1.98959 -1.291131,-3.173813 -0.313926,-1.319082 -0.51018,-3.37402 -0.510795,-5.348988 l -5.7e-4,-1.733473 0.409285,0.742919 c 0.225112,0.408607 0.459264,0.83207 0.520361,0.941031 0.827452,1.475697 2.62073,3.320893 4.259858,4.383212 0.921258,0.597063 0.880231,0.422126 -0.168398,-0.718155 -1.435176,-1.56059 -2.268361,-2.767892 -3.144582,-4.556558 -0.814439,-1.662556 -1.011732,-2.2963 -1.064036,-3.417899 -0.0536,-1.149575 0.135676,-2.24717 0.664672,-3.853804 0.580534,-1.763205 2.008596,-4.632848 2.121155,-4.262405 0.02395,0.07851 0.09472,0.800191 0.157502,1.60379 0.201829,2.583877 0.583587,4.095869 1.511098,5.985146 0.383956,0.782091 0.533596,0.997997 0.626971,0.904615 0.02173,-0.02173 -0.09359,-0.572057 -0.255926,-1.22335 -0.337766,-1.355231 -0.586679,-3.267879 -0.587991,-4.517862 -6.33e-4,-0.766671 0.147245,-2.305454 0.384476,-3.995955 l 0.08334,-0.593876 1.064942,-1.014583 c 1.607389,-1.531384 3.772219,-2.885418 5.895515,-3.687453 0.463084,-0.174911 0.910298,-0.353154 0.993803,-0.396075 0.216395,-0.111229 0.789199,-0.228711 0.789199,-0.161842 0,0.03073 -0.187714,0.174645 -0.417128,0.319457 -0.417463,0.263529 -1.771364,1.374541 -2.068489,1.697388 -0.348251,0.378393 -1.353052,1.678444 -1.548907,2.004008 -1.25248,2.081978 -1.810435,4.155535 -1.80873,6.721921 0.0013,1.598918 0.141403,2.688308 0.601643,4.669472 0.31302,1.347496 0.329453,1.546861 0.157349,1.909537 -0.08435,0.177724 -0.270453,0.723426 -0.413586,1.212675 -1.273164,4.351663 -0.316315,7.854638 3.032688,11.102491 1.404887,1.362466 1.879698,1.543713 0.62196,0.23744 -1.276142,-1.325398 -1.937355,-2.412292 -2.530953,-4.160343 -0.466701,-1.374377 -0.677869,-2.638323 -0.676164,-4.047221 0.0019,-1.361116 0.05081,-1.399515 0.398343,-0.31122 0.340281,1.065531 1.235577,2.765041 1.982925,3.764115 0.842935,1.126857 1.395638,1.708867 2.744407,2.889916 0.930052,0.814395 1.039443,0.882594 1.287729,0.802858 0.364051,-0.116924 0.717085,-0.814768 0.717085,-1.417507 0,-1.462234 -0.923102,-2.42599 -2.514044,-2.624765 -0.306165,-0.03827 -0.556681,-0.09509 -0.556681,-0.12632 0,-0.205009 0.515648,-0.74992 0.876075,-0.925806 0.362441,-0.176863 0.536421,-0.200145 1.102966,-0.147473 0.481286,0.04473 0.792158,0.02021 1.092729,-0.0857 0.873801,-0.3083 2.350479,-0.134998 3.862129,0.453189 0.658889,0.256376 1.356872,0.391286 1.659179,0.320692 0.311487,-0.07274 0.277606,0.10386 -0.0772,0.40243 -0.392028,0.329865 -0.856404,0.408423 -1.74693,0.295496 -0.399598,-0.05062 -0.726543,-0.07779 -0.726543,-0.06031 0,0.01761 0.117931,0.264321 0.262104,0.548541 0.347693,0.68549 0.522496,1.451654 0.526804,2.309161 0.0038,0.796776 0.09981,0.942924 0.730483,1.114332 l 0.38027,0.103328 1.155093,-0.99412 c 0.994608,-0.855998 1.519391,-1.388054 2.391684,-2.424817 0.850239,-1.010554 1.671451,-2.520633 2.363327,-4.345822 l 0.300413,-0.792443 0.0066,1.307609 c 0.0075,1.552855 -0.136203,2.426186 -0.656234,3.991863 -0.557163,1.677495 -1.283922,2.857809 -2.648783,4.301836 -0.666643,0.705301 -0.775052,0.922975 -0.285246,0.572767 0.493595,-0.352933 2.451755,-2.431084 2.819746,-2.992542 0.532563,-0.812563 1.081877,-1.924526 1.370139,-2.773556 0.656468,-1.933522 0.504814,-4.667286 -0.392877,-7.08248 -0.33608,-0.904197 -0.337468,-0.949026 -0.06297,-2.046329 0.50999,-2.038346 0.660649,-3.161959 0.660181,-4.923612 -5.71e-4,-2.328806 -0.375613,-4.033226 -1.269218,-5.768815 -1.040881,-2.021646 -2.127642,-3.229069 -4.38579,-4.872759 l -0.244169,-0.177723 0.297189,0.05993 c 0.555724,0.112053 1.977717,0.683502 3.160078,1.269927 1.889511,0.937166 2.970386,1.695899 4.428756,3.108826 0.916215,0.887681 0.954423,0.94198 1.013563,1.440802 0.0337,0.285094 0.128182,1.05326 0.209724,1.707029 0.295433,2.368402 0.129233,4.79424 -0.487253,7.112067 -0.336094,1.263642 -0.141518,1.231801 0.483521,-0.07915 0.838101,-1.757769 1.247506,-3.318979 1.441683,-5.497582 0.06069,-0.681005 0.134555,-1.435703 0.16409,-1.677096 l 0.05372,-0.438902 0.301788,0.484839 c 0.41925,0.67358 0.888999,1.626382 1.439104,2.918945 0.603829,1.418812 1.015128,3.288304 1.015153,4.614247 1.3e-5,0.725998 -0.0567,1.076289 -0.293855,1.814102 -0.695678,2.164476 -2.273861,4.683359 -4.25282,6.78777 -0.955817,1.016401 -0.294413,0.760583 1.277865,-0.494254 1.459567,-1.164875 2.671444,-2.632133 3.566176,-4.317673 l 0.491308,-0.925554 0.0013,1.882061 c 0.0019,3.266796 -0.423856,5.734041 -1.296187,7.510854 -0.351019,0.714975 -0.59463,1.029179 -1.024358,1.321192 -0.441557,0.300026 -2.165242,1.197425 -2.728601,1.420554 -0.24515,0.09711 -0.690914,0.287147 -0.990553,0.422298 -0.971219,0.438091 -2.64929,0.964141 -3.075566,0.964141 -0.106287,0 -0.193251,0.0446 -0.193251,0.09906 0,0.230585 1.98736,0.04333 4.110801,-0.387327 0.646909,-0.131185 1.684153,-0.441956 2.165172,-0.648695 0.210173,-0.09034 0.396969,-0.149456 0.415063,-0.131337 0.03073,0.03073 -0.118413,0.272139 -0.758403,1.227487 -0.420765,0.628099 -1.876315,2.212002 -2.771586,3.015975 -1.807735,1.623392 -3.543097,2.809933 -5.686969,3.888427 -1.079223,0.542915 -2.55803,1.097816 -2.752713,1.032924 -0.0555,-0.01837 0.117633,-0.194981 0.384843,-0.392161 0.552449,-0.407682 2.28375,-2.157804 2.868927,-2.900135 0.214754,-0.272398 0.415082,-0.517567 0.4452,-0.544802 0.0875,-0.07915 0.490053,-0.760044 0.490053,-0.828903 0,-0.317176 -1.713511,0.613731 -4.308925,2.340983 -1.356131,0.902499 -1.278555,0.750991 -0.838893,1.638457 0.70238,1.417773 0.988273,2.67323 0.985612,4.328158 -0.0032,1.868453 -0.386509,3.467435 -1.24017,5.17086 -0.583556,1.164438 -1.140003,1.96179 -2.059905,2.95171 l -0.552297,0.594331 -0.0044,-0.564695 z"
       id="path926" />
  </g>
</svg>
